<?xml version="1.0" encoding="utf-8"?>
<!-- Generator: Adobe Illustrator 16.0.3, SVG Export Plug-In . SVG Version: 6.00 Build 0)  -->
<!DOCTYPE svg PUBLIC "-//W3C//DTD SVG 1.1//EN" "http://www.w3.org/Graphics/SVG/1.1/DTD/svg11.dtd">
<svg version="1.1" id="Layer_1" xmlns="http://www.w3.org/2000/svg" xmlns:xlink="http://www.w3.org/1999/xlink" x="0px" y="0px"
	 width="312.472px" height="376.358px" viewBox="0 0 312.472 376.358" enable-background="new 0 0 312.472 376.358"
	 xml:space="preserve">
<path d="M311,41.175c-1.764-4.901-3.469-9.816-5.277-14.699c-2.672-7.221-5.312-14.464-8.146-21.596
	c-1.863-4.674-2.869-5.261-6.064-4.71c-0.529,0.092-1.041,0.242-1.555,0.399c-9.924,3.034-19.9,5.92-29.764,9.147
	c-15.064,4.934-30.104,9.979-45.076,15.206c-16.099,5.629-32.07,11.662-48.182,17.279c-17.362,6.053-34.734,12.103-52.256,17.666
	c-22.238,7.061-44.623,13.63-66.943,20.418c-1.271,0.384-2.566,0.731-3.798,1.241c-3.613,1.49-4.021,3.371-2.206,9.235
	c0.342,1.104,0.65,2.336,0.663,3.397c0.02,2.267-0.345,4.414-0.226,6.691c0.492,9.397,1.115,18.823,1.676,28.236
	c0.074,1.195,0.073,2.387,0.211,3.597c0.291,2.527,1.369,3.958,3.044,3.749c1.593-0.197,3.137-0.659,4.667-1.13
	c0.275-0.084,0.551-0.169,0.826-0.254c-0.797,15.344-0.863,30.727-0.723,46.125c0.178,18.726-0.516,37.457-0.32,56.181
	c0.17,17.047-0.642,34.027-1.564,51.012c-0.25-0.031-0.505-0.049-0.762-0.033c-1.695,0.121-3.391,0.238-5.094,0.449
	c-0.735,0.092-1.523,0.322-2.224,0.617c-1.814,0.771-3.657,1.523-5.375,2.451c-2.587,1.385-5.085,2.914-7.61,4.393
	c-1.693,0.998-3.226,2.15-4.604,3.418c-2.721,2.506-5.449,5.008-8.083,7.564c-4.806,4.658-5.979,6.057-10.422,10.9
	c-0.767,0.838-1.507,1.699-2.153,2.586c-0.645,0.879-1.257,1.77-1.87,2.66c-0.623,0.133-0.746,0.381-0.716,1.041
	c-0.22,0.32-0.436,0.641-0.658,0.959c-0.676,0.971-0.575,1.164,0.652,1.264c0.055,0.006,0.11,0.01,0.166,0.014
	c0.053,0.754,0.102,1.508,0.14,2.264c0.075,1.535-0.004,3.104,0.169,4.607c0.435,3.809,1.367,7.994,1.426,11.877
	c0.019,1.141,0.008,2.285,0.37,3.344c0.263,0.758,0.387,1.572,0.635,2.336c0.779,2.377,1.435,4.805,3.035,6.832
	c1.575,1.994,3.876,6.814,5.414,8.836c0.199,0.26,3.077,2.594,3.376,2.783c1.939,1.227,3.837,2.5,5.878,3.629
	c1.346,0.742,2.829,1.377,4.39,1.863c1.69,0.527,3.54,0.84,5.332,1.221c0.418,0.088,0.883,0.143,1.342,0.104
	c1.691-0.158,3.384-0.311,5.084-0.559c0.733-0.107,1.517-0.354,2.21-0.666c1.799-0.807,3.622-1.6,5.32-2.564
	c2.558-1.441,5.022-3.021,7.514-4.555c1.672-1.033,3.181-2.217,4.531-3.516c1.64-1.576,3.273-3.156,4.893-4.742
	c1.026,0.059,2.052,0.115,3.077,0.17c0.908,0.045,1.855-0.738,3.049-1.266c0.148-1.936,0.288-3.762,0.426-5.545
	c2.064-2.197,3.504-3.877,6.194-6.943c-0.127,1.234-0.198,2.471-0.013,3.701c1.502-1.543,1.037-3.451,1.238-5.135
	c0.471-0.568,0.928-1.143,1.336-1.729c0.219-0.314,0.426-0.631,0.639-0.947c0.059-0.004,0.104-0.008,0.171-0.014
	c1.235-0.1,1.397-0.27,1.358-1.215c-0.016-0.33-0.033-0.66-0.051-0.988c0.342-0.523,0.682-1.045,1.026-1.564
	c0.655-0.984,0.551-1.176-0.679-1.25c-0.159-0.01-0.316-0.02-0.475-0.029c-0.003-0.086-0.006-0.172-0.01-0.256
	c0.408-0.232,0.788-0.447,1.141-0.645c1.289-7.877,2.375-15.59,3.879-23.213c0.574-2.887,2.113-5.545,3.182-8.326
	c0.451-1.178,1.342-2.516,1.127-3.561c-0.688-3.32,0.338-6.439,0.361-9.637c0.031-2.572-0.15-5.295-0.9-7.695
	c-1.246-4.016-0.17-8.188-1.191-12.18c-0.158-0.627,0.459-1.568,0.854-2.275c0.51-0.912,1.365-1.742,0.764-2.912
	c-1.303-2.498-0.018-4.775,0.812-6.812c0.936-2.279,1.371-4.527,1.342-6.92c-0.059-5.188,0.199-10.406-1.135-15.494
	c-0.469-1.766-0.27-3.439,0.398-5.084c0.92-2.289,0.662-4.568,0.383-7.01c-0.334-2.955,0.027-6.008,0.158-9.016
	c0.059-1.295,0.611-2.656,0.373-3.859c-0.996-4.988-0.451-9.943-0.186-14.92c0.109-1.93-0.031-4.006-0.6-5.816
	c-1.316-4.199-0.727-8.558-1.256-12.816c-0.09-0.744,0.348-1.553,0.66-2.805c0.656,0.801,1.318,1.256,1.293,1.643
	c-0.232,3.65-0.869,7.266,1.09,10.727c0.504,0.898,0.096,2.406,0.676,3.671c0.141-0.574,0.385-1.154,0.404-1.732
	c0.217-5.208,0.422-10.416,0.564-15.625c0.039-1.512-0.068-3.039-0.236-4.549c-0.258-2.363-0.561-4.719-0.973-7.047
	c-0.137-0.777-0.654-1.479-1.047-2.176c-0.064-0.119-0.381-0.07-0.748-0.129c-1.525,3.629,0.127,7.645-1.09,12.615
	c-0.527-1.771-0.883-2.395-0.873-3.008c0.064-3.484,0.201-6.959,0.352-10.439c0.031-0.629,0.061-1.492,0.42-1.84
	c2.457-2.357,1.662-5.589,1.768-8.406c0.133-3.593,0.484-6.812,3.131-9.372c1.238-1.192,1.709-2.835,1.326-4.763
	c-0.74-3.698-1.41-8.34-1.905-12.949c14.376-4.417,28.753-8.831,43.13-13.249c0.029,0.102,0.061,0.198,0.094,0.298
	c28.51-9.325,57.035-18.606,85.502-28.073c3.617-1.204,6.997-3.062,10.844-3.679c3.139-0.503,5.896-2.533,8.938-3.494
	c6.612-2.09,13.24-4.135,19.869-6.178c-0.181,2.07-0.36,4.14-0.545,6.21c-0.055,0.609-0.234,1.209-0.32,1.817
	c-0.279,1.918-0.586,3.826-0.803,5.744c-0.609,5.405-1.178,10.811-1.773,16.219c-0.049,0.434-0.201,0.859-0.271,1.296
	c-0.248,1.563-0.52,3.125-0.713,4.69c-0.574,4.529-1.107,9.059-1.672,13.592c-0.051,0.432-0.221,0.861-0.289,1.292
	c-0.23,1.391-0.488,2.777-0.65,4.172c-0.576,4.877-0.906,9.782-1.744,14.633c-0.555,3.215-0.957,6.436-1.162,9.67
	c-0.055,0.787-0.23,1.567-0.342,2.346c-0.29,2.088-0.702,4.17-0.848,6.263c-0.257,3.588-0.373,7.182-0.498,10.773
	c-0.043,1.225,0.019,2.46,0.113,3.686c0.273,3.688,0.562,7.375,0.891,11.06c0.283,3.16,0.439,6.329,0.971,9.477
	c1.092,6.578,2.352,13.15,3.621,19.717c0.831,4.307,1.831,8.602,2.981,12.885c-0.294,0.023-0.589,0.049-0.883,0.07
	c-1.959,0.154-3.842,0.518-5.637,1.057c-3.544,1.059-7.091,2.113-10.578,3.26c-6.362,2.082-8.027,2.824-14.143,5.232
	c-1.057,0.418-2.1,0.867-3.069,1.381c-0.339,0.182-0.666,0.367-0.999,0.551c-0.057-0.021-0.098-0.039-0.16-0.064
	c-1.144-0.477-1.366-0.4-1.764,0.459c-0.136,0.301-0.271,0.602-0.406,0.902c-0.543,0.309-1.084,0.617-1.629,0.922
	c-1.031,0.576-1.026,0.795,0.033,1.422c0.137,0.082,0.272,0.162,0.408,0.242c-0.079,0.172-0.156,0.342-0.237,0.512
	c-0.665,1.385-1.479,2.727-2.044,4.133c-1.432,3.555-2.605,7.68-4.4,11.123c-0.529,1.012-1.08,2.012-1.266,3.113
	c-0.131,0.795-0.41,1.568-0.557,2.359c-0.445,2.461-1.025,4.908-0.583,7.451c0.434,2.506,0.163,7.84,0.554,10.348
	c0.051,0.324,1.472,3.748,1.643,4.055c1.124,2.002,2.185,4.027,3.44,5.99c0.83,1.297,1.834,2.559,2.975,3.73
	c1.234,1.27,2.712,2.424,4.106,3.611c0.326,0.275,0.709,0.545,1.131,0.73c1.563,0.666,3.125,1.338,4.737,1.93
	c0.695,0.254,1.501,0.412,2.26,0.467c1.966,0.146,3.948,0.318,5.901,0.277c2.934-0.047,5.854-0.264,8.776-0.428
	c1.962-0.113,3.853-0.436,5.657-0.934c3.566-0.984,7.135-1.963,10.646-3.031c6.404-1.947,8.086-2.654,14.252-4.93
	c1.064-0.396,2.117-0.822,3.098-1.316c0.975-0.488,1.928-0.998,2.879-1.512c0.615,0.168,0.838,0.002,1.113-0.598
	c0.342-0.186,0.68-0.371,1.023-0.553c1.045-0.555,1.043-0.771-0.002-1.422c-0.047-0.029-0.094-0.059-0.141-0.088
	c0.297-0.695,0.598-1.389,0.91-2.078c0.635-1.398,1.422-2.756,1.955-4.174c1.355-3.586,2.439-7.734,4.162-11.215
	c0.506-1.023,1.037-2.035,1.199-3.143c0.113-0.795,0.375-1.574,0.504-2.369c0.194-1.221,0.421-2.441,0.541-3.67
	c0.911-0.346,1.383-1.023,1.562-2.098c0.207-1.217,0.207-2.443,0.266-3.672c2.6-55.686,5.195-111.372,7.791-167.058l0.014-0.001
	l1.072-22.968l-0.023,0.003c0.145-3.069,0.287-6.138,0.432-9.208c1.179-0.376,2.348-0.781,3.477-1.298
	C313.074,49.279,313.283,47.536,311,41.175z"/>
</svg>
